<?xml version="1.0" standalone="no"?>
<!DOCTYPE svg PUBLIC "-//W3C//DTD SVG 20010904//EN"
 "http://www.w3.org/TR/2001/REC-SVG-20010904/DTD/svg10.dtd">
<svg version="1.0" xmlns="http://www.w3.org/2000/svg"
 width="826.000000pt" height="461.000000pt" viewBox="0 0 826.000000 461.000000"
 preserveAspectRatio="xMidYMid meet">

<g transform="translate(0.000000,461.000000) scale(0.100000,-0.100000)"
fill="#000000" stroke="none">
<path d="M1250 2040 l0 -1080 1075 0 1075 0 0 215 0 215 -50 0 -50 0 0 -165 0
-165 -975 0 -975 0 0 980 0 980 975 0 975 0 0 -165 0 -165 50 0 50 0 0 215 0
215 -1075 0 -1075 0 0 -1080z"/>
<path d="M3570 1950 l0 -790 1725 0 1725 0 0 790 0 790 -1725 0 -1725 0 0
-790z m2069 604 c50 -14 121 -67 141 -104 10 -19 -14 -76 -37 -84 -9 -4 -30 7
-51 25 -70 62 -153 75 -216 34 -68 -45 -92 -176 -48 -267 20 -39 41 -59 143
-128 187 -129 224 -189 224 -365 0 -105 -2 -114 -33 -177 -19 -39 -49 -80 -70
-98 -114 -94 -307 -72 -412 47 -22 25 -40 56 -40 68 0 26 36 75 55 75 7 0 29
-20 48 -44 49 -59 115 -89 184 -84 91 8 143 79 143 198 0 113 -31 157 -179
259 -149 102 -191 156 -211 275 -29 161 48 328 171 372 48 17 126 17 188 -2z
m-1451 -18 c54 -23 106 -83 123 -144 8 -27 14 -92 14 -152 0 -95 -3 -111 -28
-162 -21 -42 -39 -64 -69 -82 l-40 -24 23 -12 c45 -23 78 -63 96 -114 15 -43
18 -87 18 -276 l0 -225 -62 -3 c-35 -2 -64 -2 -64 0 -1 2 -4 109 -8 238 -6
196 -10 241 -25 268 -25 48 -67 62 -181 62 l-95 0 0 -272 c0 -150 -4 -279 -9
-286 -5 -9 -26 -12 -67 -10 l-59 3 -3 595 c-1 327 0 601 3 608 8 23 376 12
433 -12z m442 5 c6 -13 10 -170 10 -443 0 -244 5 -450 11 -488 19 -124 64
-170 164 -170 95 0 136 44 154 165 7 47 11 238 11 503 0 235 4 433 9 440 5 9
26 12 67 10 l59 -3 0 -465 c-1 -405 -3 -474 -18 -533 -45 -180 -124 -236 -318
-225 -168 9 -239 87 -269 293 -11 77 -14 918 -3 928 3 4 30 7 59 7 42 0 55 -4
64 -19z m1440 0 c6 -12 10 -115 10 -266 l0 -246 153 3 152 3 5 260 5 260 60 0
60 0 0 -605 0 -605 -60 0 -60 0 -5 285 -5 285 -152 3 -153 3 0 -278 c0 -153
-4 -284 -9 -291 -5 -9 -26 -12 -67 -10 l-59 3 -3 595 c-1 327 0 601 3 608 3 7
25 12 59 12 44 0 57 -4 66 -19z m775 -591 l0 -605 -59 -3 c-41 -2 -62 1 -67
10 -5 7 -9 276 -9 599 0 453 3 588 12 597 8 8 34 12 68 10 l55 -3 0 -605z"/>
<path d="M3890 2234 l0 -216 99 4 c82 2 105 7 128 24 44 33 65 79 71 154 13
189 -42 250 -227 250 l-71 0 0 -216z"/>
<path d="M1502 1948 l3 -603 174 -3 c202 -3 260 8 312 61 82 82 113 228 113
532 -1 303 -36 455 -123 543 -64 64 -77 67 -289 70 l-192 4 2 -604z m361 467
c68 -49 95 -160 103 -430 9 -306 -24 -468 -105 -513 -32 -18 -55 -22 -130 -22
l-91 0 0 496 0 496 98 -4 c77 -2 103 -7 125 -23z"/>
<path d="M2275 2538 c-3 -7 -4 -278 -3 -603 l3 -590 230 0 230 0 0 50 0 50
-163 3 -162 2 2 223 3 222 133 3 133 3 -3 57 -3 57 -132 3 -133 3 0 209 0 210
159 0 c171 0 171 0 171 55 0 56 6 55 -236 55 -171 0 -226 -3 -229 -12z"/>
<path d="M2830 2518 c0 -36 207 -1119 221 -1155 8 -20 15 -23 69 -23 54 0 61
3 69 23 11 30 211 1129 211 1162 0 24 -3 25 -55 25 l-54 0 -10 -37 c-5 -21
-40 -224 -78 -450 -37 -227 -70 -413 -73 -413 -3 0 -41 192 -84 428 -43 235
-82 437 -87 450 -8 19 -15 22 -69 22 l-60 0 0 -32z"/>
</g>
</svg>
